<?xml version="1.0" standalone="no"?>
<!DOCTYPE svg PUBLIC "-//W3C//DTD SVG 20010904//EN"
 "http://www.w3.org/TR/2001/REC-SVG-20010904/DTD/svg10.dtd">
<svg version="1.0" xmlns="http://www.w3.org/2000/svg"
 width="500.000000pt" height="500.000000pt" viewBox="0 0 500.000000 500.000000"
 preserveAspectRatio="xMidYMid meet">

<g transform="translate(0.000000,500.000000) scale(0.100000,-0.100000)"
fill="#000000" stroke="none">
<path d="M4705 4640 c-25 -59 -114 -178 -166 -224 l-42 -36 34 0 c40 0 178 25
186 34 8 7 17 222 12 251 -3 14 -9 7 -24 -25z"/>
<path d="M3620 4483 c-111 -38 -169 -114 -157 -204 7 -55 39 -94 104 -126 119
-58 272 -24 329 72 13 23 24 56 24 74 0 73 -68 153 -152 178 -43 13 -120 16
-148 6z"/>
<path d="M4800 4397 c0 -19 -64 -110 -104 -147 l-35 -33 57 -28 c66 -33 68
-32 77 61 3 36 8 86 11 113 3 26 3 47 0 47 -3 0 -6 -6 -6 -13z"/>
<path d="M605 4356 c-4 -19 -8 -155 -8 -303 l-2 -268 30 -60 c22 -44 63 -92
157 -186 71 -70 128 -132 128 -138 0 -14 59 -51 81 -51 8 0 26 -11 39 -25 13
-14 19 -25 13 -25 -5 0 -18 9 -28 20 -15 16 -21 18 -33 7 -13 -9 -14 -9 -8 1
4 6 2 12 -3 12 -13 0 -14 -10 -1 -30 5 -8 12 -11 16 -7 4 4 13 2 21 -4 15 -13
18 -33 3 -24 -5 3 -10 1 -10 -4 0 -6 6 -11 14 -11 7 0 19 -14 26 -30 7 -17 18
-34 24 -38 26 -17 66 -81 59 -97 -5 -14 -2 -16 18 -10 16 4 20 3 11 -3 -11 -7
-7 -14 17 -31 17 -12 31 -31 31 -42 0 -10 6 -19 13 -20 15 0 87 -94 87 -114 0
-8 5 -16 10 -16 6 -1 15 -2 20 -3 14 -1 30 -28 24 -38 -3 -4 0 -8 5 -8 6 0 11
-7 11 -16 0 -14 3 -14 15 -4 15 12 22 0 8 -14 -4 -3 -8 -13 -9 -21 -2 -11 2
-12 16 -5 11 6 22 15 25 20 3 5 27 24 53 42 34 23 42 25 28 10 -14 -16 -15
-22 -6 -22 11 0 11 -3 2 -12 -9 -9 -7 -14 6 -24 15 -11 15 -14 -11 -38 -26
-24 -57 -26 -57 -4 0 6 -9 -1 -21 -16 -11 -14 -27 -26 -36 -26 -9 0 -13 -6 -9
-15 3 -9 -3 -29 -12 -45 -14 -22 -21 -27 -30 -18 -14 14 -52 -16 -52 -40 0
-13 -3 -12 -14 3 -13 18 -14 18 -25 -3 -14 -27 -14 -35 2 -27 6 4 1 -3 -13
-14 -28 -23 -44 -27 -35 -8 4 6 -10 -6 -30 -28 -21 -22 -39 -39 -41 -38 -4 3
-98 -84 -211 -196 l-85 -84 6 -56 6 -56 -17 30 c-9 17 -16 33 -15 36 0 4 -7
14 -18 24 -14 13 -23 14 -38 6 -11 -6 -22 -7 -26 -4 -3 3 -6 1 -6 -5 0 -7 -5
-12 -11 -12 -21 0 -2 25 20 26 32 2 39 14 8 14 -15 0 -27 5 -27 11 0 5 5 7 12
3 7 -4 8 -3 4 4 -4 7 -18 10 -34 6 -18 -4 -23 -3 -14 4 11 7 9 10 -7 15 -11 2
-22 2 -26 -1 -9 -9 -74 -9 -69 0 6 10 -8 10 -30 2 -9 -3 -13 -10 -10 -15 3 -5
-2 -6 -10 -3 -9 3 -16 1 -16 -5 0 -6 -8 -11 -18 -11 -10 0 -29 -11 -42 -25
-13 -14 -20 -25 -15 -25 4 0 -4 -10 -19 -21 -15 -12 -25 -27 -22 -34 2 -7 0
-17 -5 -22 -16 -16 -23 -320 -9 -403 32 -189 151 -327 402 -462 36 -20 69 -34
72 -31 3 4 6 0 6 -7 0 -7 27 14 60 48 33 34 60 67 60 72 0 6 9 10 19 10 18 0
36 25 32 43 -1 5 3 6 9 2 5 -3 10 -1 10 5 0 6 5 8 10 5 6 -3 10 -1 10 4 0 6 7
11 15 11 8 0 15 9 15 20 0 11 5 20 11 20 5 0 8 4 5 9 -3 5 1 12 10 15 10 4 13
2 8 -7 -4 -6 -4 -9 1 -5 4 4 13 18 20 30 6 13 17 22 24 20 7 -1 9 2 6 8 -4 7
2 14 14 17 11 3 19 9 16 13 -3 4 3 14 12 21 14 12 16 12 8 0 -5 -10 -4 -12 3
-7 7 4 12 13 12 19 0 16 36 47 45 39 4 -4 5 0 3 8 -1 8 3 14 10 12 6 -1 11 2
10 7 -3 12 90 100 97 93 3 -3 5 2 5 12 0 9 5 14 10 11 6 -3 10 1 10 9 0 8 9
17 20 21 11 3 19 12 17 18 -1 7 4 11 11 9 6 -1 11 4 10 10 -2 7 3 12 10 10 6
-1 11 2 10 6 -2 4 40 51 93 103 424 414 546 533 615 598 43 40 79 80 80 88 2
8 0 12 -3 9 -4 -3 -178 165 -387 373 -210 209 -523 518 -696 688 -623 609
-602 585 -604 690 0 29 -1 53 -3 53 -1 0 -5 -15 -8 -34z m496 -1103 c13 -16
12 -17 -3 -4 -10 7 -18 15 -18 17 0 8 8 3 21 -13z m60 -60 c13 -16 12 -17 -3
-4 -10 7 -18 15 -18 17 0 8 8 3 21 -13z m409 -437 c-1 -17 -3 -16 -15 9 -7 17
-14 26 -14 22 -1 -5 -6 -5 -11 -2 -6 4 -8 11 -4 16 9 15 44 -21 44 -45z m70
-52 c0 -2 -13 5 -30 14 -16 9 -30 23 -30 30 0 7 13 0 30 -15 17 -14 30 -28 30
-29z m324 -16 c-3 -5 -2 -7 3 -6 4 2 19 -8 33 -22 l25 -25 -36 -35 c-19 -19
-62 -60 -95 -89 -107 -99 -283 -265 -584 -551 -288 -274 -338 -317 -371 -324
-55 -10 -99 12 -188 96 l-83 77 44 20 c48 22 88 55 88 74 0 8 3 8 8 2 4 -5 31
-32 59 -59 l51 -48 60 58 c32 33 152 149 265 258 114 110 204 203 201 208 -3
5 0 7 8 6 7 -2 12 3 10 10 -1 8 1 11 6 8 5 -3 60 44 123 104 63 60 118 110
123 110 4 0 6 7 3 14 -4 9 -1 13 6 11 7 -3 53 33 102 79 l90 84 27 -25 c15
-14 25 -30 22 -35z m-387 0 c-3 -8 -6 -5 -6 6 -1 11 2 17 5 13 3 -3 4 -12 1
-19z m124 -45 c13 -16 12 -17 -3 -4 -10 7 -18 15 -18 17 0 8 8 3 21 -13z
m-511 -187 c0 -2 -7 -7 -16 -10 -8 -3 -12 -2 -9 4 6 10 25 14 25 6z m-494
-334 c5 -25 9 -31 16 -20 7 9 8 8 4 -6 -4 -10 -1 -25 5 -32 9 -11 9 -17 0 -28
-6 -8 -11 -18 -10 -22 4 -21 -2 -34 -13 -31 -7 1 -12 -3 -11 -8 2 -15 -93 -18
-132 -4 -18 7 -37 22 -40 33 -10 31 -12 95 -3 90 4 -3 8 4 8 16 0 12 5 18 10
15 6 -3 10 -2 10 2 0 5 16 7 36 5 23 -3 34 -1 31 5 -4 6 4 8 20 5 16 -3 24 -1
20 5 -4 7 3 10 18 9 20 -1 26 -8 31 -34z m-272 -39 c-4 -16 -11 -31 -17 -34
-5 -4 -5 -14 2 -27 6 -11 11 -24 11 -29 -1 -4 -8 5 -16 20 -11 20 -12 32 -5
41 6 7 8 16 5 19 -5 5 15 35 24 37 1 0 -1 -12 -4 -27z"/>
<path d="M2761 4203 c-1 -7 0 -14 1 -15 1 -2 -5 -14 -12 -28 -26 -48 -58 -214
-67 -342 l-6 -98 63 0 c60 0 62 1 56 23 -37 127 -46 179 -46 271 0 56 5 118
11 139 6 21 8 44 5 50 -3 9 -5 9 -5 0z"/>
<path d="M4667 4024 c-8 -8 1 -24 14 -24 5 0 9 7 9 15 0 15 -12 20 -23 9z"/>
<path d="M53 3993 c-4 -16 -7 -185 -7 -378 l-1 -350 27 -78 c31 -86 58 -132
129 -224 l49 -63 0 -142 c1 -224 33 -325 144 -460 72 -87 85 -94 143 -74 26 9
55 16 65 16 10 0 18 4 18 10 0 11 60 44 67 36 3 -3 12 1 19 9 8 8 22 11 31 8
11 -5 14 -3 8 6 -6 10 0 12 26 7 22 -4 27 -3 15 2 -17 7 -11 13 39 40 32 17
63 29 69 25 6 -3 8 -2 3 2 -4 5 13 22 38 37 25 16 43 33 40 38 -3 5 -11 7 -18
5 -10 -4 -94 12 -157 29 -66 18 -220 93 -220 107 0 4 -10 9 -22 13 -27 6 -149
124 -188 181 -57 84 -95 170 -106 241 l-6 42 89 -24 c97 -27 313 -45 313 -27
0 6 -15 16 -32 23 -54 21 -194 118 -259 178 -92 85 -186 230 -237 367 -40 105
-79 329 -69 391 7 41 0 45 -10 7z"/>
<path d="M4248 4013 c7 -3 16 -2 19 1 4 3 -2 6 -13 5 -11 0 -14 -3 -6 -6z"/>
<path d="M4245 3992 c-19 -13 -46 -63 -42 -75 3 -7 9 -1 15 13 5 14 19 32 31
40 21 14 28 30 14 30 -5 0 -13 -4 -18 -8z"/>
<path d="M4886 3972 c-3 -9 -4 -27 -1 -40 3 -17 -2 -25 -22 -33 -14 -5 -34 -7
-44 -4 -21 7 -33 -25 -26 -71 3 -22 4 -18 6 14 1 36 4 43 19 40 12 -2 18 -14
20 -39 3 -30 -1 -37 -25 -48 -15 -7 -36 -18 -47 -23 -10 -5 -16 -6 -13 -1 3 4
-6 8 -19 8 -14 0 -24 -6 -25 -15 -2 -48 -29 -97 -57 -106 -9 -3 -26 -10 -37
-14 -11 -5 -36 -12 -55 -16 -31 -6 -32 -8 -15 -16 13 -5 7 -6 -20 -2 -22 3
-42 9 -45 12 -3 4 -23 8 -45 9 -29 2 -36 0 -25 -7 30 -20 -4 -9 -37 11 -18 12
-40 18 -48 15 -8 -3 -17 0 -21 6 -5 7 -2 8 6 3 9 -5 11 -4 6 4 -4 6 -15 10
-24 9 -11 -2 -17 3 -16 14 1 10 -2 16 -6 13 -5 -3 -12 4 -15 16 -4 11 -9 18
-13 15 -3 -3 -13 12 -23 34 -21 47 -30 51 -25 13 2 -16 1 -22 -1 -14 -4 12 -6
12 -14 0 -7 -9 -8 -1 -5 26 4 28 3 32 -2 15 -7 -23 -12 -25 -60 -22 -33 3 -52
0 -52 -7 0 -6 -5 -11 -10 -11 -6 0 -10 8 -8 18 2 11 -4 18 -19 20 -21 3 -22 0
-16 -29 5 -27 3 -31 -10 -26 -13 5 -14 1 -6 -26 11 -40 11 -39 -2 -35 -19 6
-39 80 -40 153 -1 39 -4 54 -6 35 -2 -19 -7 -42 -10 -50 -3 -8 -8 -23 -9 -32
-2 -10 -15 -30 -29 -45 -13 -15 -40 -50 -60 -76 -42 -57 -45 -104 -8 -144 14
-15 22 -32 18 -42 -5 -17 -258 -271 -269 -271 -3 0 -7 17 -7 38 -1 25 -3 29
-6 12 -8 -54 -14 -71 -23 -65 -5 3 -12 0 -16 -6 -4 -8 -3 -9 4 -5 7 4 12 3 12
-3 0 -5 -9 -13 -20 -16 -11 -3 -20 -11 -20 -16 0 -6 5 -7 12 -3 7 4 8 3 4 -4
-4 -7 -14 -12 -22 -12 -8 0 -14 -3 -14 -8 0 -12 -52 -31 -103 -38 -38 -5 -51
-12 -64 -35 -10 -16 -21 -29 -25 -29 -4 0 -7 -6 -6 -12 2 -7 -2 -12 -9 -11 -6
2 -15 -7 -19 -20 -7 -23 -43 -54 -57 -49 -5 1 -6 -1 -3 -6 5 -8 -55 -72 -172
-185 -21 -20 -42 -34 -47 -30 -4 5 -5 2 -1 -4 4 -7 3 -13 -3 -13 -6 0 -15 -9
-21 -20 -10 -18 -5 -26 37 -64 26 -24 68 -62 93 -85 25 -22 48 -41 51 -41 3 0
116 108 250 241 414 408 560 551 664 646 86 79 102 90 115 78 8 -7 39 -24 68
-37 l53 -23 -94 -95 c-51 -52 -176 -176 -278 -274 -356 -346 -649 -639 -649
-650 0 -10 232 -237 249 -244 3 -1 127 -121 275 -267 148 -146 273 -265 278
-265 18 0 133 97 204 172 100 106 172 219 214 338 45 129 50 173 54 475 3 160
2 275 0 257 -3 -18 -9 -30 -15 -27 -5 3 -6 -1 -3 -9 4 -10 1 -16 -9 -16 -10 0
-13 8 -9 25 2 14 8 23 12 20 4 -3 8 7 9 23 0 15 1 36 1 47 1 11 -4 21 -10 23
-5 2 -7 8 -4 14 4 5 7 25 9 44 2 28 -1 32 -12 23 -7 -7 -17 -9 -20 -5 -4 4 -3
10 2 14 6 4 11 20 12 36 1 21 -2 25 -10 17 -17 -17 -17 -72 -1 -78 8 -3 11 -9
8 -14 -3 -5 -10 -7 -15 -4 -5 4 -13 -5 -19 -19 -5 -14 -16 -26 -24 -26 -7 0
-16 -7 -19 -15 -4 -8 -23 -22 -45 -33 -30 -14 -41 -16 -49 -6 -7 6 -11 14 -10
16 1 2 -2 0 -7 -4 -5 -4 -5 -12 1 -20 26 -34 23 -47 -16 -59 -40 -12 -50 -37
-21 -51 10 -5 6 -7 -10 -5 -16 1 -25 8 -25 19 0 9 -4 20 -8 24 -4 4 -7 -1 -7
-11 0 -20 -13 -13 -16 9 -2 13 285 306 300 306 3 0 5 -3 5 -7 -3 -16 26 -73
36 -73 28 0 127 35 190 68 87 45 172 128 210 207 l30 60 0 240 c0 180 -3 248
-14 272 -7 18 -17 31 -21 28 -4 -3 -10 2 -14 10 -3 8 -12 12 -19 9 -11 -4 -14
5 -12 40 2 49 0 57 -9 28z m34 -87 c0 -8 -7 -15 -15 -15 -8 0 -15 5 -15 11 0
5 5 7 10 4 6 -3 10 -1 10 4 0 6 2 11 5 11 3 0 5 -7 5 -15z m40 -90 c0 -8 -2
-15 -4 -15 -2 0 -6 7 -10 15 -3 8 -1 15 4 15 6 0 10 -7 10 -15z m-14 -72 c-6
-21 -9 -24 -17 -12 -5 7 -8 21 -8 29 0 10 3 8 9 -5 8 -19 9 -18 9 4 1 13 4 22
7 18 4 -3 3 -18 0 -34z m-936 -68 c7 -9 8 -15 2 -15 -5 0 -12 7 -16 15 -3 8
-4 15 -2 15 2 0 9 -7 16 -15z m35 -37 c5 4 5 1 1 -6 -6 -10 -11 -10 -22 -1 -8
6 -14 14 -14 16 0 3 6 0 13 -6 8 -6 18 -7 22 -3z m-695 -551 c0 -2 -10 -12
-21 -23 -22 -19 -22 -19 -8 4 12 19 29 30 29 19z m1055 -217 c3 -5 -1 -10 -9
-10 -9 0 -16 5 -16 10 0 6 4 10 9 10 6 0 13 -4 16 -10z m-207 -67 c-1 -5 4
-19 11 -31 7 -13 10 -26 7 -29 -8 -8 -26 7 -26 23 0 27 -17 14 -25 -18 -4 -18
-7 -36 -7 -40 1 -5 -17 -4 -35 1 -8 3 -13 0 -14 -6 0 -5 -9 -11 -21 -16 -13
-5 -18 -13 -14 -23 4 -11 2 -15 -8 -11 -8 3 -17 0 -20 -8 -3 -8 -15 -19 -28
-25 -21 -10 -21 -10 -6 3 10 8 14 18 10 22 -4 5 -1 5 6 1 6 -4 12 -3 12 2 0
13 98 111 104 105 3 -4 1 -12 -5 -20 -9 -9 -8 -13 0 -13 6 0 12 6 12 13 3 27
5 33 19 55 14 21 32 31 28 15z m312 -73 c0 -4 -6 -10 -13 -13 -8 -3 -13 3 -13
19 0 18 3 21 13 12 7 -6 13 -14 13 -18z m-395 -100 c3 -5 -1 -10 -10 -10 -9 0
-13 5 -10 10 3 6 8 10 10 10 2 0 7 -4 10 -10z m-118 -46 c0 -7 -9 -11 -19 -9
-10 2 -18 -1 -18 -7 0 -6 -3 -8 -6 -5 -9 9 13 34 29 34 8 0 14 -6 14 -13z
m-87 -114 c-8 -5 -19 -10 -25 -10 -5 0 -3 5 5 10 8 5 20 10 25 10 6 0 3 -5 -5
-10z"/>
<path d="M4691 3914 c0 -11 3 -14 6 -6 3 7 2 16 -1 19 -3 4 -6 -2 -5 -13z"/>
<path d="M4156 3894 c-3 -9 -6 -25 -7 -37 0 -21 -1 -20 -11 3 -6 16 -12 20
-15 12 -5 -14 15 -72 26 -72 8 0 31 50 31 68 0 7 4 10 10 7 5 -3 7 0 4 9 -8
21 -31 27 -38 10z"/>
<path d="M3982 3820 c0 -14 2 -19 5 -12 2 6 2 18 0 25 -3 6 -5 1 -5 -13z"/>
<path d="M4067 3823 c-13 -12 -7 -23 13 -23 11 0 20 7 20 15 0 15 -21 21 -33
8z"/>
<path d="M4706 3803 c-6 -14 -5 -15 5 -6 7 7 10 15 7 18 -3 3 -9 -2 -12 -12z"/>
<path d="M4675 3720 c3 -4 -5 -19 -16 -34 -11 -14 -17 -26 -13 -26 7 0 28 24
44 51 6 11 5 16 -5 16 -8 0 -12 -4 -10 -7z"/>
<path d="M4641 3697 c-13 -21 -12 -21 5 -5 10 10 16 20 13 22 -3 3 -11 -5 -18
-17z"/>
<path d="M3820 3484 c0 -8 5 -12 10 -9 6 4 8 11 5 16 -9 14 -15 11 -15 -7z"/>
<path d="M915 3340 c-3 -6 1 -7 9 -4 18 7 21 14 7 14 -6 0 -13 -4 -16 -10z"/>
<path d="M3146 3265 c-3 -9 -6 -35 -6 -57 0 -23 -3 -38 -7 -35 -9 10 -28 -22
-43 -74 -10 -35 -18 -46 -29 -42 -11 3 -10 1 2 -7 16 -10 27 -4 75 38 56 48
58 49 82 33 14 -9 27 -19 28 -23 5 -11 22 -10 22 0 0 5 -12 14 -26 20 -14 7
-23 16 -20 21 3 5 -2 15 -11 22 -14 12 -16 12 -8 0 5 -10 4 -12 -4 -7 -6 4 -9
12 -5 17 3 5 0 16 -6 24 -7 8 -18 31 -25 51 -9 27 -14 32 -19 19z"/>
<path d="M4500 3041 c0 -6 4 -13 10 -16 6 -3 7 1 4 9 -7 18 -14 21 -14 7z"/>
<path d="M4452 3012 c-1 -24 0 -25 9 -9 7 11 7 23 2 28 -5 5 -9 -3 -11 -19z"/>
<path d="M4400 2975 c-10 -12 -10 -15 3 -15 8 0 20 7 27 15 10 12 10 15 -3 15
-8 0 -20 -7 -27 -15z"/>
<path d="M4363 2942 c-9 -15 -8 -19 3 -19 8 0 14 9 14 19 0 10 -1 18 -3 18 -1
0 -7 -8 -14 -18z"/>
<path d="M4290 2852 c6 -13 14 -21 18 -18 3 4 -2 14 -12 24 -18 16 -18 16 -6
-6z"/>
<path d="M4234 2815 c-19 -14 -19 -14 3 -15 28 0 53 10 53 21 0 14 -34 11 -56
-6z"/>
<path d="M2635 2703 c-54 -13 -73 -69 -33 -97 28 -20 51 -20 88 -1 64 33 17
115 -55 98z"/>
<path d="M1343 2634 c-15 -16 -16 -24 -4 -24 8 0 24 30 19 35 -2 2 -9 -3 -15
-11z"/>
<path d="M2411 2573 c-1 -48 -5 -83 -11 -83 -5 0 -10 -7 -10 -15 0 -7 -6 -18
-14 -22 -8 -4 -15 -10 -15 -13 0 -3 -4 -18 -10 -33 -6 -16 -11 -38 -11 -51 0
-12 -8 -31 -17 -42 -30 -34 -63 -83 -63 -94 0 -6 4 -18 9 -28 5 -9 14 -29 21
-44 7 -15 16 -25 20 -23 3 2 19 -5 36 -16 19 -12 46 -19 82 -19 32 0 52 -4 52
-12 0 -6 7 -4 18 5 10 10 28 17 40 17 11 0 27 6 34 13 7 6 19 13 25 14 6 1 26
5 44 8 18 3 48 19 66 35 19 17 39 30 45 30 6 0 9 3 5 6 -3 3 5 17 19 31 13 13
24 27 24 32 0 4 15 15 33 25 17 9 24 14 15 12 -22 -6 -23 1 -4 19 7 8 17 11
21 7 5 -4 5 -2 2 4 -3 6 1 30 9 53 10 30 14 75 12 150 -3 88 -4 99 -12 66 -4
-22 -19 -57 -32 -77 -26 -40 -98 -93 -114 -83 -6 4 -10 2 -10 -3 0 -12 -86
-26 -102 -16 -7 4 -24 9 -37 10 -14 2 -27 8 -29 14 -2 5 -8 8 -13 4 -5 -3 -9
0 -9 6 0 6 -4 9 -9 5 -6 -3 -15 4 -21 15 -6 12 -16 18 -23 14 -7 -4 -9 -4 -5
1 4 4 0 14 -10 22 -9 8 -11 11 -4 8 11 -6 12 -3 3 14 -7 11 -16 21 -21 21 -6
0 -10 12 -11 28 0 15 -4 36 -9 47 -6 13 -9 -7 -9 -62z"/>
<path d="M756 2291 c-3 -4 6 -6 19 -3 14 2 25 6 25 8 0 8 -39 4 -44 -5z"/>
<path d="M748 2263 c7 -3 16 -2 19 1 4 3 -2 6 -13 5 -11 0 -14 -3 -6 -6z"/>
<path d="M693 2247 c0 -9 13 -21 30 -28 24 -10 30 -10 38 2 6 10 2 17 -13 24
-16 7 -23 6 -26 -3 -3 -10 -7 -9 -16 4 -11 15 -13 15 -13 1z"/>
<path d="M845 2250 c3 -5 11 -10 16 -10 6 0 7 5 4 10 -3 6 -11 10 -16 10 -6 0
-7 -4 -4 -10z"/>
<path d="M765 2200 c-7 -12 19 -24 37 -17 7 3 2 6 -12 6 -20 1 -22 3 -10 11 9
6 10 10 3 10 -6 0 -15 -5 -18 -10z"/>
<path d="M2584 1720 c-20 -21 -41 -37 -45 -35 -3 3 -9 -5 -12 -16 -4 -14 -11
-20 -21 -16 -9 4 -15 1 -13 -5 1 -7 -4 -12 -10 -13 -7 0 -13 -4 -13 -10 -1
-18 -93 -104 -104 -98 -6 3 -8 3 -4 -2 4 -4 3 -14 -3 -22 -10 -11 -15 -11 -28
-1 -14 11 -14 11 -4 -3 11 -13 9 -19 -7 -34 -17 -15 -22 -16 -36 -4 -16 13
-16 12 -6 -8 14 -25 -2 -43 -21 -24 -9 9 -8 10 7 5 18 -7 18 -6 1 14 -17 19
-19 19 -51 4 -36 -18 -44 -32 -19 -32 9 0 18 6 21 14 7 18 38 31 31 14 -2 -7
-1 -20 4 -29 6 -12 3 -21 -9 -30 -15 -13 -16 -12 -3 4 12 15 11 17 -3 17 -9 0
-16 -5 -16 -11 0 -6 -7 -8 -16 -5 -8 3 -25 1 -37 -6 -20 -10 -21 -10 -8 6 12
14 12 16 -3 10 -19 -7 -22 12 -3 20 6 2 2 4 -11 2 -12 -1 -28 -8 -35 -15 -6
-7 -7 -12 -2 -11 31 6 35 0 22 -33 -12 -27 -12 -36 0 -53 12 -18 11 -23 -9
-40 -13 -10 -17 -12 -10 -4 6 8 12 23 11 35 0 20 0 20 -9 0 -8 -19 -9 -19 -9
2 -1 12 -7 24 -13 26 -8 3 -6 6 5 6 9 1 17 8 17 16 0 12 -13 15 -55 15 -42 0
-55 -3 -55 -15 0 -8 4 -15 10 -15 5 0 2 -9 -7 -20 -17 -20 -18 -20 -28 -1 -9
17 -13 18 -35 6 -22 -13 -23 -14 -5 -15 18 0 18 -2 -5 -19 -13 -11 -27 -18
-31 -16 -3 3 -19 -9 -34 -25 -16 -17 -32 -30 -37 -30 -5 0 -32 -24 -62 -52
-87 -87 -116 -105 -116 -76 0 9 -3 8 -12 -1 -10 -11 -10 -14 0 -18 17 -6 15
-23 -2 -23 -8 0 -16 -6 -19 -12 -3 -9 -11 -4 -25 12 -13 16 -16 26 -9 28 12 3
37 47 37 65 0 5 -7 7 -15 3 -8 -3 -15 -1 -15 4 0 6 -9 10 -20 10 -14 0 -22
-11 -31 -38 l-11 -38 -62 8 c-44 6 -66 14 -81 31 -18 20 -26 22 -73 17 -41 -4
-58 -11 -73 -30 -15 -20 -19 -22 -19 -7 0 9 -3 17 -6 17 -13 0 -34 -30 -34
-50 0 -12 -4 -18 -10 -15 -6 4 -8 15 -5 25 4 13 -1 20 -17 26 -14 4 -24 2 -26
-5 -3 -9 -7 -9 -18 -1 -14 12 -34 6 -34 -11 0 -5 7 -9 15 -9 10 0 15 -10 15
-30 0 -27 -3 -30 -34 -30 -30 0 -34 3 -29 23 4 19 1 18 -26 -10 -33 -35 -43
-40 -39 -21 4 18 -37 15 -56 -5 -28 -27 -38 -20 -36 26 1 23 1 47 0 52 -1 6
-2 14 -1 18 1 5 -3 6 -9 2 -6 -3 -7 -12 -3 -18 4 -7 -1 -6 -10 2 -10 8 -20 11
-24 7 -3 -3 -1 -6 6 -6 7 0 3 -9 -8 -22 -11 -11 -18 -24 -16 -28 7 -11 -24
-34 -32 -26 -4 4 -2 16 5 26 19 31 14 42 -8 20 -12 -12 -18 -25 -15 -30 4 -6
-6 -10 -22 -10 -21 0 -24 3 -13 10 8 5 12 11 9 15 -3 3 -14 -3 -23 -14 -13
-14 -14 -21 -5 -27 8 -5 10 -3 4 6 -6 9 -4 11 4 5 9 -5 9 -11 3 -17 -6 -6 -8
-17 -5 -26 5 -10 2 -13 -6 -8 -7 5 -10 14 -7 22 3 8 1 14 -3 14 -5 0 -12 -8
-15 -17 -13 -34 -37 -259 -38 -363 -2 -96 1 -110 25 -162 51 -104 154 -170
320 -202 130 -26 463 -18 558 12 100 33 148 70 369 288 425 420 577 569 640
630 l66 63 164 -162 c90 -89 161 -157 158 -152 -4 6 134 -129 307 -300 172
-171 328 -317 347 -326 116 -56 191 -69 396 -69 276 0 411 37 516 142 89 90
109 173 87 363 -6 44 -13 113 -16 152 -9 103 -10 106 -26 111 -9 2 -10 1 -3
-5 12 -8 12 -98 1 -110 -4 -3 -7 -1 -7 5 0 7 -7 12 -15 12 -8 0 -15 -7 -15
-16 0 -8 -5 -12 -10 -9 -6 4 -8 11 -5 16 4 5 -1 9 -10 9 -8 0 -20 -10 -25 -22
-7 -18 -9 -19 -9 -5 -1 19 -16 23 -26 7 -9 -15 -35 -12 -35 4 0 8 3 16 8 19 4
2 0 2 -8 -1 -36 -12 -80 -14 -80 -3 0 6 -11 11 -25 11 -14 0 -25 -4 -25 -10 0
-5 -25 -10 -55 -10 -67 0 -73 17 -7 23 l47 3 -47 2 c-37 2 -48 6 -53 22 -8 24
-40 19 -64 -10 -12 -15 -20 -15 -65 -4 -55 13 -156 33 -196 38 -13 2 -26 9
-28 15 -2 6 -23 11 -46 11 -37 0 -45 4 -56 28 -11 22 -14 24 -17 10 -6 -25
-25 -22 -53 7 -13 14 -27 25 -31 25 -10 0 -79 70 -79 80 0 5 -25 14 -55 20
-30 6 -57 16 -60 21 -4 5 -15 9 -25 9 -12 0 -21 10 -25 29 -7 31 -39 51 -95
58 -19 2 -40 5 -47 8 -17 6 -24 -6 -12 -21 7 -8 7 -14 -1 -19 -5 -3 -10 1 -10
9 0 9 -5 16 -11 16 -6 0 -3 7 5 16 22 22 20 25 -10 14 -31 -12 -34 -12 -34 -1
0 5 9 13 20 16 11 4 18 10 15 15 -3 5 -2 10 2 13 5 2 2 2 -4 1 -7 -2 -13 1
-13 6 0 6 -9 10 -20 10 -11 0 -20 -4 -20 -10 0 -5 9 -10 20 -10 29 0 25 -20
-5 -21 -14 -1 -30 -2 -37 -3 -6 -1 -14 6 -16 14 -5 13 -3 13 11 1 12 -9 17
-10 17 -2 0 6 -7 14 -16 18 -8 3 -13 12 -10 19 6 16 1 17 -23 5 -13 -7 -24 -2
-50 24 -19 20 -30 39 -26 46 5 7 3 10 -6 7 -20 -8 -59 31 -52 50 5 11 2 14
-10 9 -12 -4 -14 -2 -10 11 6 15 5 16 -12 2 -17 -14 -18 -13 -12 3 4 10 3 16
-3 12 -14 -8 -49 35 -43 54 4 13 3 13 -5 2 -8 -11 -14 -10 -33 9 -13 13 -18
20 -12 16 9 -5 11 -2 7 9 -4 9 -12 14 -20 11 -15 -6 -38 19 -30 32 3 6 -2 9
-12 8 -9 0 -16 5 -14 12 1 8 -1 11 -6 8 -5 -3 -22 8 -37 24 -16 17 -34 30 -41
30 -7 0 -29 -18 -50 -40z m-394 -345 c-7 -9 -15 -13 -17 -11 -7 7 7 26 19 26
6 0 6 -6 -2 -15z m-100 -76 c0 -5 -4 -9 -8 -9 -5 0 -9 7 -9 15 0 8 4 12 9 9 4
-3 8 -9 8 -15z m-112 -38 c19 -1 6 -18 -19 -24 -11 -3 -18 -3 -15 0 3 4 1 12
-5 19 -8 9 -6 12 8 9 10 -2 24 -4 31 -4z m1285 -26 c15 -4 27 -11 27 -16 0 -6
-8 -5 -19 1 -11 5 -27 7 -37 3 -12 -4 -15 -3 -10 5 4 7 2 12 -4 12 -6 0 -8 5
-4 11 4 7 9 8 13 1 3 -6 19 -14 34 -17z m-1249 -6 c-3 -5 -10 -7 -15 -3 -5 3
-7 10 -3 15 3 5 10 7 15 3 5 -3 7 -10 3 -15z m76 17 c0 -2 -8 -10 -17 -17 -16
-13 -17 -12 -4 4 13 16 21 21 21 13z m-40 -16 c0 -5 -5 -10 -11 -10 -5 0 -7 5
-4 10 3 6 8 10 11 10 2 0 4 -4 4 -10z m1220 -30 c0 -5 -7 -7 -15 -4 -8 4 -15
8 -15 10 0 2 7 4 15 4 8 0 15 -4 15 -10z m60 -45 c0 -8 -4 -15 -8 -15 -5 0 -9
7 -9 15 0 8 4 15 9 15 4 0 8 -7 8 -15z m-1373 -17 c2 -17 0 -19 -7 -8 -5 8 -6
18 -4 22 8 12 10 10 11 -14z m-567 -48 c0 -5 -7 -10 -15 -10 -8 0 -15 5 -15
10 0 6 7 10 15 10 8 0 15 -4 15 -10z m520 -24 c-7 -7 -13 -7 -20 0 -6 6 -3 10
10 10 13 0 16 -4 10 -10z m-370 -51 c10 -12 10 -15 -4 -15 -9 0 -16 7 -16 15
0 8 2 15 4 15 2 0 9 -7 16 -15z m-520 -19 c0 -3 -4 -8 -10 -11 -5 -3 -10 -1
-10 4 0 6 5 11 10 11 6 0 10 -2 10 -4z m260 -6 c0 -5 -2 -10 -4 -10 -3 0 -8 5
-11 10 -3 6 -1 10 4 10 6 0 11 -4 11 -10z"/>
<path d="M2394 1558 l-19 -23 23 19 c21 18 27 26 19 26 -2 0 -12 -10 -23 -22z"/>
<path d="M2940 1492 c0 -5 7 -15 15 -22 8 -7 15 -8 15 -2 0 5 -7 15 -15 22 -8
7 -15 8 -15 2z"/>
<path d="M2998 1473 c7 -3 16 -2 19 1 4 3 -2 6 -13 5 -11 0 -14 -3 -6 -6z"/>
<path d="M3025 1430 c-7 -11 14 -54 23 -46 3 4 1 11 -5 17 -6 6 -9 18 -6 25 6
16 -3 19 -12 4z"/>
<path d="M2040 1400 c0 -5 10 -10 23 -10 18 0 19 2 7 10 -19 13 -30 13 -30 0z"/>
<path d="M3334 1298 c3 -15 26 -23 26 -8 0 6 -4 9 -9 6 -5 -4 -12 -1 -14 4 -3
6 -4 5 -3 -2z"/>
<path d="M3420 1210 c0 -5 5 -10 10 -10 6 0 10 5 10 10 0 6 -4 10 -10 10 -5 0
-10 -4 -10 -10z"/>
<path d="M1238 1183 c7 -3 16 -2 19 1 4 3 -2 6 -13 5 -11 0 -14 -3 -6 -6z"/>
<path d="M815 1136 c-17 -12 -17 -13 3 -11 26 2 37 11 24 19 -5 3 -17 -1 -27
-8z"/>
<path d="M776 1094 c-8 -22 -4 -25 11 -9 7 8 9 16 4 19 -5 3 -12 -1 -15 -10z"/>
<path d="M745 1070 c-3 -5 -1 -10 4 -10 6 0 11 5 11 10 0 6 -2 10 -4 10 -3 0
-8 -4 -11 -10z"/>
<path d="M1600 1060 c0 -5 5 -10 10 -10 6 0 10 5 10 10 0 6 -4 10 -10 10 -5 0
-10 -4 -10 -10z"/>
<path d="M3760 1045 c0 -10 10 -15 27 -15 26 0 26 1 7 15 -25 19 -34 19 -34 0z"/>
<path d="M4545 1041 c-3 -5 -2 -12 3 -15 5 -3 9 1 9 9 0 17 -3 19 -12 6z"/>
<path d="M790 1029 c0 -5 5 -7 10 -4 6 3 10 8 10 11 0 2 -4 4 -10 4 -5 0 -10
-5 -10 -11z"/>
<path d="M4065 1010 c-19 -8 -19 -9 3 -9 12 -1 22 4 22 9 0 6 -1 10 -2 9 -2 0
-12 -4 -23 -9z"/>
<path d="M4525 951 c-3 -5 -1 -12 5 -16 5 -3 10 1 10 9 0 18 -6 21 -15 7z"/>
</g>
</svg>
